<svg width="1440" height="256" viewBox="0 0 1440 256" fill="none" xmlns="http://www.w3.org/2000/svg">
<path d="M493 145.5C284.812 284.527 256.5 83 -0.5 114.5V0H1440.5V45C1440.5 45 1385 17.1757 1277.5 83C1139.5 167.5 1071.52 204.311 914 114.5C746.5 19 640.5 47 493 145.5Z" fill="#EAEEFD"/>
<path opacity="0.4" d="M492.842 157.471C284.51 307.936 256.178 89.8287 -1 123.92V0H1441V48.7023C1441 48.7023 1385.46 18.5888 1277.89 89.8287C1139.79 181.281 1071.77 221.12 914.135 123.92C746.518 20.5632 640.445 50.8669 492.842 157.471Z" fill="#EAEEFD"/>
<path opacity="0.4" d="M492.842 172.397C284.51 337.124 256.178 98.3433 -1 135.666V0H1441V53.3186C1441 53.3186 1385.46 20.3508 1277.89 98.3433C1139.79 198.464 1071.77 242.08 914.135 135.666C746.518 22.5123 640.445 55.6884 492.842 172.397Z" fill="#EAEEFD"/>
<path opacity="0.4" d="M492.842 191.055C284.51 373.61 256.178 108.986 -1 150.349V0H1441V59.0891C1441 59.0891 1385.46 22.5533 1277.89 108.986C1139.79 219.943 1071.77 268.279 914.135 150.349C746.518 24.9487 640.445 61.7152 492.842 191.055Z" fill="#EAEEFD"/>
</svg>
