<svg width="115" height="29" viewBox="0 0 115 29" fill="none" xmlns="http://www.w3.org/2000/svg">
<path d="M37.3036 11.3425C37.3036 9.29529 35.3185 7.12359 31.8769 7.12359C28.0105 7.12359 23.7697 9.95409 23.1133 15.6101C22.4508 21.3284 26.011 23.8552 29.5881 23.8552C33.164 23.8552 35.0465 22.4618 36.9583 20.594C35.3076 18.515 33.1786 19.4825 32.776 19.6851C32.3307 19.9083 31.7463 20.217 30.5592 20.217C29.1733 20.217 27.7677 19.5899 27.7677 17.0168C36.6276 16.1677 37.3036 13.3909 37.3036 11.3425ZM32.9127 11.6853C32.8553 12.3161 32.5966 13.408 28.1131 14.0083C29.0586 10.6507 30.8618 10.4018 31.695 10.4018C32.4759 10.4018 32.9736 11.0069 32.9127 11.6853ZM17.9062 12.2306C17.9062 12.2306 16.0006 18.2064 15.8529 18.7079C15.8017 18.2064 14.4072 7.47257 14.4072 7.47257C11.1618 7.47257 9.42575 9.77844 8.51075 12.2282C8.51075 12.2282 6.19265 18.221 6.00478 18.7225C5.99382 18.2528 5.64853 12.2905 5.64853 12.2905C5.4521 9.29402 2.7168 7.47984 0.5 7.47984L3.16578 23.7417C6.57088 23.7307 8.3936 21.4285 9.35502 18.9836C9.35502 18.9836 11.3937 13.6959 11.4779 13.4556C11.4986 13.685 12.9444 23.7417 12.9444 23.7417C16.3519 23.7417 18.1905 21.5859 19.18 19.2288L23.9613 7.47984C20.594 7.47984 18.8212 9.77964 17.9062 12.2306ZM49.8186 7.10162C47.7239 7.10162 46.1097 8.23997 44.7507 9.92237L44.7531 9.91014L45.961 0.138916C43.1719 0.138916 40.8929 2.56682 40.4598 6.16832L38.3382 23.6148C39.9474 23.6148 41.6518 23.1476 42.5716 21.9653C43.3952 23.0231 44.6189 23.8661 46.4306 23.8661C51.1339 23.8661 54.367 18.3992 54.367 13.2665C54.367 8.58279 52.0879 7.10162 49.8186 7.10162ZM49.3868 15.4833C48.8988 18.3528 47.3042 20.2877 45.7596 20.2877C44.2029 20.2877 43.5453 19.5997 43.5453 19.5997C43.8356 17.0913 44.0284 15.5528 44.5957 14.2279C45.1618 12.9029 46.5002 10.7886 47.9007 10.7886C49.2623 10.7886 49.8748 12.615 49.3868 15.4833ZM66.1574 7.48112H62.8645L62.8803 7.30907C63.1048 5.15934 63.6197 4.03082 65.2863 3.85757C66.4245 3.74049 66.9394 3.14874 67.059 2.50944C67.1529 2.00799 67.4713 0.235291 67.4713 0.235291C60.8661 0.197491 58.7957 3.04869 58.2674 7.38227L58.2552 7.47984L58.1905 7.48232C57.1181 7.48232 55.9408 8.69627 55.7346 10.2383L55.6627 10.8056H57.8587L56.0152 26.0671L55.4565 28.8097L55.6833 28.817C58.7664 28.6999 60.7502 26.2684 61.1882 22.7279L62.6278 10.8056H63.66C64.6702 10.8056 65.8572 9.79307 66.0769 8.10084L66.1574 7.48112ZM83.2453 7.19807C79.451 7.19807 75.875 9.99069 74.7755 14.384C73.6775 18.7762 75.347 23.9625 80.9232 23.9625C86.5018 23.9625 89.7065 18.5565 89.7065 14.0681C89.7065 9.57707 86.6712 7.19807 83.2453 7.19807ZM84.7835 15.3527C84.587 17.345 83.7088 20.3549 81.308 20.3549C78.8968 20.3549 79.2395 16.8229 79.4727 15.1466C79.7233 13.3494 80.7327 10.8056 82.8815 10.8056C84.8225 10.8056 85.0055 13.103 84.7835 15.3527ZM108.444 12.2306C108.444 12.2306 106.538 18.2064 106.392 18.7079C106.339 18.2064 104.945 7.47257 104.945 7.47257C101.7 7.47257 99.9642 9.77844 99.0485 12.2282C99.0485 12.2282 96.7318 18.221 96.5435 18.7225C96.5322 18.2528 96.1872 12.2905 96.1872 12.2905C95.9907 9.29402 93.254 7.47984 91.0385 7.47984L93.7032 23.7417C97.1082 23.7307 98.9322 21.4285 99.8937 18.9836C99.8937 18.9836 101.932 13.6959 102.016 13.4556C102.037 13.685 103.482 23.7417 103.482 23.7417C106.89 23.7417 108.728 21.5859 109.717 19.2288L114.5 7.47984C111.132 7.47984 109.359 9.77964 108.444 12.2306ZM69.2563 0.235291L66.4917 22.5326L66.4843 22.529L65.9231 25.2863L66.1488 25.2935C69.1257 25.2569 71.2376 22.6449 71.6353 19.3508L73.232 6.55262C73.7165 2.65464 71.3926 0.235291 69.2563 0.235291Z" fill="#2C302E"/>
</svg>
